<?xml version="1.0" encoding="UTF-8"?>
<svg id="Layer_1" data-name="Layer 1" xmlns="http://www.w3.org/2000/svg" viewBox="0 0 950 950">
  <path d="m192.61,295.85c.77.03,1.64.05,2.67.07,4.18.07,8.89-1.65,12.02-3.11,2.23-1.05,3.68-1.96,3.49-1.96-2.9-.03-7.54-.07-9.27-.07-7.54,0-11.5,4.27-11.53,4.66-.03.24,1.01.35,2.62.41Zm700.75,201.4c-4.28-9.53-16.09-6.44-16.09-6.44-5.58,1.16-11.94,7.56-21.41,10.36-20.31,6.02-36.53-.98-36.53-.98-31.27-13.51-131.81-71.07-182.93-96.22,0,0-58.64-29.4-144.83-63.53,0,0-166.74-73.27-283.15-66.36,0,0-60.35,2.68-79.22,30.1,0,0-3.22,3.66-1.39,7.62,0,0,.36,1.14-.4,1.89,0,0-10.15,9.09-15.31,17.17-1.81,2.94-3.83,7.87-.11,11.33,0,0,1.68,1.3,2.38,2.44,1.47,2.41,2.84,5.99,4.67,8.13,2.63,3.14,7.96,8.58,15.47,7.28,2.77-.48,3.36-1.53,3.36-1.53,3.76,3.73,9.86,3.62,9.86,3.62-.77-2.39-3.38-7.08-3.76-9.91-.4-3.12.51-6.1.51-6.1,1.06-3.54,3.17-7.99,5.49-10.24,2.03-2.02,7.23-4.33,11.43-1.43,3.34,2.37,7.33,10.09,4.01,21.12-.15.83-3.81,8.65-7.74,9.84,0,0-.37.12-1.12.12-2.64,0-7.56-2.76-7.56-2.76,0,0-.13.7.57,3.56.44,1.64,1.02,3.42,1.49,4.81,0,0-.96,1.71-1.58,2.71-.95,1.7-1.75,4.95.28,6.43,0,0,8.71,5.92,17.16,6.44,5.82.35,8.03-3.58,8.03-3.58,4.28-5.9,7.51-10.94,12.03-15.05,12.35-11.31,29.69-14.35,29.69-14.35,1.15-.15,20.09-5.42,52.29,20.33-9.2.74-20.14,2.93-28.5,4.42-23.85,4.25-39.16,26.76-43.61,35.91-11.59,23.89,12.11,32.12,12.11,32.12.22-.22,22.59-1.98,33.39-25.76,0,0,3.95-10.53,14.45-7.12,6.86,2.23,67.54,23.43,81.2,27.03,0,0,40.63,10.58,55.93-8.11,24.46,8.02,47.41,11.91,107.54,4.15,10.44-1.36,18.64-1.05,18.64-1.05,14.05,1.05,26.87,10.5,30.75,16.7,15.81,25.31,35.87,75.58,105.5,69.46l31.49-2.86c19.22-1.14,34.87-1.89,50.74,6.46,6.91,3.63,10.75,4.96,22.47,16.15,16.04,15.26,30.81,31.78,50.44,22.77,6.97-3.21,14.8-15.65,14.8-15.65-.76-5.68-3.29-11.15-9.53-15.81,17.83,4.24,58.07,6.98,73.64-20.24,4.02-6.34,4.46-11.99,2.93-15.4ZM208.74,279.19c113.82-6.74,279.13,65.21,280.74,65.94l.11.03.09.03c13.85,5.51,27.01,10.89,39.34,16.04-2.91-1.15-17.92-7.11-17.94-7.11-24.17-9.6-68.59-24.21-68.98-24.34-58.25-20.1-83.72-23.64-85.53-23.88-6.9-1.12-9.53-1.42-9.63-1.43l-10.5-1.21s5.76,9.32,5.79,9.38c-41.12-29.09-90.34-30.56-92.76-30.62h-.11c-9.91,0-18.58,2.82-25.29,6.05.77-1.41,3.35-6.25,3.35-6.25l-8.15-.36c-14.57-.66-25.84-.15-33.99.65,13.02-2.41,23.17-2.94,23.44-2.94Zm-94.45,54.04c6.68-9.85,15.39-17.27,15.49-17.35.12-.1.25-.2.33-.31.13-.13.23-.27.37-.4.52.61,1.21,1.24,2.12,1.76-5.08,2.16-18.3,16.3-18.3,16.3Zm50.02-2.98c-3.06-2.14-6.47-2.56-9.57-2.06,1.36-1.01,3.54-1.14,3.54-1.14,1.43-.17,8.2-.43,11.34,10.17-1.34-3.04-3.17-5.47-5.31-6.97Zm722.7,179.83c-1.52,5.28-9.05,12.33-18.22,16.39-9.62,4.3-29.68,5.43-41.27,3.54-.03,0-22.48-2.28-42.14-22.82-6.2-6.48-13.83-13.84-20.88-21.1-3.1-3.25-10.72-10.87-23.4-12.57-13.21-1.78-45.45-2.66-57.58-6.68-8.11-2.7-17.88-8.19-30.88-27.45-6.26-9.22-10.71-11.76-19.22-17.16,0,0,6.53,5.19,10.23,11.75,5.34,9.51,8.03,16.44,10.94,21.51,2.91,5.09,6.2,9.6,11.15,13.59,6.17,4.95,10.02,5.88,16.7,6.99,6.4,1.07,27.98.87,46.5.6,18.22-.29,26.35,5.59,32.33,10.64,5.54,4.66,15.04,18,20.88,23.86,6.96,6.92,12.05,14.01,25.82,20.95,4.78,2.43,12.6,8.37,12.2,14.11-6.19,6.19-13.87,7.82-32.29,2.9,1.3,1.27,10.95,11.4,27.45,6.61-4.98,4.16-9.86,5.93-14.95,5.65-17.27-.96-34.19-22.23-43.67-30.09-7.21-5.96-8.04-7.46-20.28-15.93-18.59-12.87-60.31-9.25-60.31-9.25l-30.61,1.59c-59.62,4.5-84.66-48.31-91.26-59.33-2.3-3.82-4.37-6.91-6.35-9.41-3.04-4.06-19.33-25.19-35.8-32.13,0,0,16.19,13.93,15.23,23.15,0,0-6.71-3.11-24.95-.51-78.54,11.19-105.27-8.46-105.27-8.46,3.65-15.74-7.34-31.9-7.34-31.9,6.06,1.92,44.67,14.97,81.34,7.52,0,0-59.68.32-101.52-33.06,0,0,26.04,32.63,19.86,53.99,0,0-4.27,22.77-49.67,13.59-4.84-.96-10.55-2.58-78.49-21.43-15.97-4.78-21.49,2.85-24.37,7.43-.12,6.72-8.04,14.56-12.03,17.01-21.02-3.79-12.65-23.3-12.65-23.3-13.23,18.93.63,27.29,5.01,27.88-2.62,1.27-5.11,2.19-7.21,2.97,0,0-17.18-10.23-7.58-27,13.4-23.38,27.04-30.87,52.04-33.16,10.94-1.05,20.06-1.82,27-.87,18.14,2.5,29.51,12.75,56.68,15.39-57.67-16.98-57.79-50.38-57.99-51.01,0,0-.02-.07-.02-.07-3.19,11.02-1.44,20.31,1.38,28.15-.8-.28-13.41-8.57-18.21-11.49-20.71-12.64-37.05-14.85-37.05-14.85-6.87-.87-10.07-9.21-10.07-9.21-.24-.43-.48-.82-.72-1.22-9.55-16.31-18.99-16.63-18.99-16.63,3.37,4.59,4.65,10.42,5.13,14.06.27,2.09.54,5.92.53,7.08-.17,17.41-20.35,22.91-20.35,22.91-14.06,17.84-13.33,18.21-16.45,18.67-3.14.44-10-3.05-10-3.05-.53-.29-.67-1.06-.59-1.57.17-1.08,1.05-1.76,1.05-1.76,2.64-2.09,4.79-4.17,4.79-4.17,14.86-15.2,16.64-22.62,14.81-32.47-3.76-19.76-17.88-17.46-17.88-17.46-6.88.66-9.64,6.33-9.64,6.33-2.36,3.64-7.36,14.78-7.36,14.78-3.07,6.65-6.2,8.15-7.82,8.45-.71.13-2.02.1-2.45.09-4.78-.17-8.41-4.58-8.41-4.58-.22-.23-.43-.46-.6-.65-4.37-4.69-1.2-10.82-1.2-10.82,5.89-13.72,17.33-15.71,18.87-15.91,1.6-.2,6.86-.97,6.86-.97,14.53-2.44,21.39-17.57,21.39-17.57-9.79-.12-14.58.53-14.58.53-9.64,1.69-12.92,13.04-12.92,13.02-8.16,1.86-7.95-5.15-6.52-7.29,1.28-1.98,6.07-10.39,37.41-17.64,0,0,15.45-4.65,48.47-3.16l-1.36,2.53c-2.92,5.52-14.5,16.91-33.64,12.69,0,0,.17,8.5,20.93,11.55,0,0,18.78,3.35,50.62,28.94,0,0-15.23-30.24-41.07-38.08,0,0-3.23-.69-1.65-2.72,0,0,15.27-14.35,36.49-14.34,0,0,66.19,1.42,108.23,45.4,0,0-1.84-7.65-8.46-18.49l-2.78-4.52s2.52.29,9.43,1.42c0,0,25.27,3.15,84.62,23.65,0,0,44.47,14.6,68.81,24.26,36.58,14.57,128.22,50.07,186.63,81.92,10.44,5.67,116.1,60.77,116.1,60.77,29.26,13.14,49.52,5.15,49.52,5.15,6.59-2.5,18.53-11.68,23.76-6.49,2.69,2.68,3.05,6.3,1.76,9.84ZM142.84,314.42s.63-1.82.79-2.26c.18-.44,1.91-5.19,6.23-5.64,0,0,2.5-.15,6.34-.15,0,0-1.88,6.05-9.29,7.35,0,0-2.9.66-4.07.7Zm70.24-5.28c6.15,1.87,11.66,5.21,16.48,9.11-14.68-8.21-23.12-9.87-23.67-9.96h-.16c-2.3-.36-4.21-.78-5.94-1.21,2.84-.59,5.48-1.47,7.88-2.57,0,.05,0,.1,0,.14,1.12,3.06,4.09,4.14,5.41,4.49Z"/>
  <path id="FS_Master_Logo" data-name="FS Master Logo" d="m185.59,653.53h63.38l-31.74-36.85-31.64,36.85Zm71.39,9.3h-79.37l-13.16,15.32h-15.53l62.42-71.95h26.39l62.47,71.95h-30.03l-13.2-15.32Zm397.17-9.3h63.38l-31.74-36.85-31.64,36.85Zm71.39,9.3h-79.37l-13.15,15.32h-15.53l62.41-71.95h26.41l62.47,71.95h-30.04l-13.2-15.32Zm-588.84-56.63v35.09c0,11.35-2.6,18.23-8,23.75-9.41,9.63-27.47,13.11-53.02,13.11H21.81v-9.66h49.59c15.22,0,25.5-2.52,31.7-8.65,4.7-4.63,6.81-11.1,6.81-20.71v-32.94h26.79Zm280.12,62.34v-23.43h26.66v33.03h-77.52c-14.53,0-25.99-1.69-34.63-5.17-14.4-5.81-20.99-16.43-20.99-30.93,0-13.7,7.17-23.21,16.3-28.32,9.71-5.44,20.64-7.52,38.85-7.52h75.26v9.61h-66.92c-14.34,0-22.15,2.17-28.11,7.01-5.29,4.3-8.11,10.74-8.11,19.36,0,8.91,2.96,15.49,8.62,19.8,5.97,4.54,14.01,6.56,27.82,6.56h42.77Zm468.33-15.79c10.07-.33,18.6-1.85,25.18-5.4,6.82-3.67,10.07-10.61,10.07-17.8,0-9.61-4.3-15.77-12.12-19.22-6.96-3.07-15.55-4.12-32.67-4.12h-83.05v71.95h26.79v-24.94h35.19l40.14,24.94h32.64l-42.16-25.42Zm-13.03-37.47c10.04,0,14.49.93,17.55,3.22,2.9,2.17,3.94,5.49,3.94,10.66v1.35c0,4.66-1.11,8.44-4.53,10.81-3.36,2.33-8.07,2.84-16.63,2.84h-53.1v-28.88h52.78Zm-266.44-9.07v35.85c0,9.28-1.02,16.62-5.7,22.75-7.61,9.99-21.57,15.72-60.5,15.72h-.4c-38.72,0-52.75-5.74-60.35-15.71-4.68-6.14-5.69-13.48-5.69-22.76v-35.85h26.79v34.83c0,9.35,1.18,14.84,4.6,19.66,5.79,8.16,15.8,11.11,33.79,11.11h2.27c18.82,0,27.99-2.95,33.79-11.11,3.43-4.83,4.61-10.56,4.61-19.63v-34.87h26.79Z"/>
</svg>