<svg version="1.2" xmlns="http://www.w3.org/2000/svg" viewBox="0 0 1514 1013" width="1514" height="1013">
	<title>Tata_logo-svg</title>
	<style>
		.s0 { fill: #3d85c6 } 
	</style>
	<g id="Layer">
		<path id="Layer" fill-rule="evenodd" class="s0" d="m848.3 253.6c-22.2-0.5-37.5 6.6-47.6 19.4-12.4 15.6-11.4 71.2-11.1 96l6.6 642.5c-13 0.4-26.1 0.6-39.3 0.6-13.1 0-26.1-0.3-39.1-0.7l6.5-642.4c0.3-24.8 1.2-80.4-11-96-10.1-12.8-25.5-19.9-47.7-19.4-230.8 4.9-479.4 51.3-624.7 86.5 18.2-35.8 42.1-70.1 71.9-102.2 66.8-72.1 161.1-132.2 272.8-173.6 112.5-41.8 240.8-63.9 371.3-63.9 130.4 0 258.8 22.1 371.3 63.9 111.6 41.4 206 101.4 272.8 173.6 29.7 32.1 53.7 66.4 71.8 102.1-145.3-35.1-393.8-81.6-624.5-86.4zm665.4 252.7c0 221.8-214.8 410.6-512.6 478.7-8.7-35.4-59.7-244.4-100.7-487.2-1.2-7.3-2.2-13.7-3-18.8-12.2-83.4-10.6-127 111.6-120.2 140.1 7.7 282.2 16.6 494.8 64.7 6.5 27.2 9.9 54.8 9.9 82.8zm-899.2-14.6c-41.4 247.2-93.6 460.4-101.9 493.7-43.9-9.8-86.6-22.1-127-37.1-111.7-41.4-206-101.5-272.8-173.7-73.8-79.7-112.8-172.5-112.8-268.3 0-28 3.4-55.6 9.9-82.7 212.8-48.2 354.9-57.1 495.1-64.8 122.1-6.8 123.7 36.8 111.4 120.2-0.4 3.6-1.1 8-1.9 12.7z"/>
	</g>
</svg>